HIERARCHY
ROOT Hips
{
	OFFSET 0.000000 88.474243 0.000000
	CHANNELS 6 Xposition Yposition Zposition Zrotation Yrotation Xrotation 
	JOINT Hips_Spine
	{
		OFFSET 0.000000 0.000000 0.000000
		CHANNELS 3 Zrotation Yrotation Xrotation
		JOINT Spine
		{
			OFFSET 0.005100 8.711998 -0.691000
			CHANNELS 3 Zrotation Yrotation Xrotation
			JOINT Spine1
			{
				OFFSET -0.009200 8.660301 -1.275000
				CHANNELS 3 Zrotation Yrotation Xrotation
				JOINT Spine2
				{
					OFFSET 0.006300 9.852501 -1.857000
					CHANNELS 3 Zrotation Yrotation Xrotation
					JOINT Spine2_Neck
					{
						OFFSET 0.000000 0.000000 0.000000
						CHANNELS 3 Zrotation Yrotation Xrotation
						JOINT Neck
						{
							OFFSET 0.016300 11.420799 -0.263300
							CHANNELS 3 Zrotation Yrotation Xrotation
							End Site #name: Head
							{
								OFFSET -0.019200 9.262405 2.362500
							}
						}
					}
					JOINT Spine2_LeftShoulder
					{
						OFFSET 0.000000 0.000000 0.000000
						CHANNELS 3 Zrotation Yrotation Xrotation
						JOINT LeftShoulder
						{
							OFFSET 5.616900 6.732201 -0.345700
							CHANNELS 3 Zrotation Yrotation Xrotation
							JOINT LeftArm
							{
								OFFSET 10.664888 -0.183372 -2.440700
								CHANNELS 3 Zrotation Yrotation Xrotation
								JOINT LeftForeArm
								{
									OFFSET 27.459126 0.000000 0.000000
									CHANNELS 3 Zrotation Yrotation Xrotation
									End Site #name: LeftHand
									{
										OFFSET 21.306858 0.000000 0.000000
									}
								}
							}
						}
					}
					JOINT Spine2_RightShoulder
					{
						OFFSET 0.000000 0.000000 0.000000
						CHANNELS 3 Zrotation Yrotation Xrotation
						JOINT RightShoulder
						{
							OFFSET -5.580300 6.737503 -0.344400
							CHANNELS 3 Zrotation Yrotation Xrotation
							JOINT RightArm
							{
								OFFSET -10.679335 -0.188484 -2.383900
								CHANNELS 3 Zrotation Yrotation Xrotation
								JOINT RightForeArm
								{
									OFFSET -27.503529 0.000000 0.000000
									CHANNELS 3 Zrotation Yrotation Xrotation
									End Site #name: RightHand
									{
										OFFSET -21.306808 0.000000 0.000000
									}
								}
							}
						}
					}
				}
			}
		}
	}
	JOINT Hips_LeftUpLeg
	{
		OFFSET 0.000000 0.000000 0.000000
		CHANNELS 3 Zrotation Yrotation Xrotation
		JOINT LeftUpLeg
		{
			OFFSET 6.857700 -6.739601 0.312100
			CHANNELS 3 Zrotation Yrotation Xrotation
			JOINT LeftLeg
			{
				OFFSET -0.367590 -34.731552 -4.572400
				CHANNELS 3 Zrotation Yrotation Xrotation
				End Site #name: LeftFoot
				{
					OFFSET 0.367590 -34.656704 -6.067400
				}
			}
		}
	}
	JOINT Hips_RightUpLeg
	{
		OFFSET 0.000000 0.000000 0.000000
		CHANNELS 3 Zrotation Yrotation Xrotation
		JOINT RightUpLeg
		{
			OFFSET -6.876100 -6.733299 0.301000
			CHANNELS 3 Zrotation Yrotation Xrotation
			JOINT RightLeg
			{
				OFFSET 0.347353 -34.795158 -4.515900
				CHANNELS 3 Zrotation Yrotation Xrotation
				End Site #name: RightFoot
				{
					OFFSET -0.347353 -34.589367 -6.070300
				}
			}
		}
	}
}
MOTION
Frames: 12
Frame Time: 0.041667
0.024851 -0.018206 -0.090154 -6.125969 33.414489 -1.418423 0.000000 -0.000000 0.000000 -1.488968 -0.163864 1.256254 0.462381 -0.645302 3.347174 0.000000 0.000000 0.000000 1.190641 -0.474974 0.421908 -2.471230 -5.841096 -1.914650 0.511662 -0.300657 0.124616 -5.519890 -13.821580 2.742148 -76.314273 2.553300 -1.418216 2.718318 -11.723861 4.448598 0.328349 -0.982595 1.625983 8.682089 12.694575 5.583721 28.368694 20.203952 -27.876254 -8.478631 49.082189 -1.942180 0.000000 -0.000000 -0.000000 -0.776836 14.684278 -17.301629 -4.435182 -24.228187 0.780728 -0.000000 -0.000000 -0.000000 -0.573515 -11.377896 -13.350822 -2.187085 -5.180912 12.895021 
-0.635359 -0.219068 -0.260556 -6.416621 28.322643 -0.301358 0.000000 -0.000000 0.000000 -3.489589 -3.347398 3.047679 0.785363 -0.480940 1.869709 0.000000 0.000000 0.000000 0.970326 -0.283834 1.464895 -1.783513 -8.581316 -3.124946 0.882624 -0.458331 -0.075592 -3.996944 -14.945365 2.317523 -78.446246 -6.534905 -6.057606 -1.830574 -5.262236 2.455205 0.821050 -0.755021 2.234885 9.043637 10.482651 3.572917 23.671082 22.853096 -36.426189 -6.122550 44.968172 0.101068 0.000000 -0.000000 -0.000000 0.278550 16.245898 -18.062125 -3.792867 -19.024060 -0.155366 -0.000000 -0.000000 -0.000000 -1.421495 -3.508086 -10.911265 4.087012 1.414483 9.957227 
-1.018228 -0.355724 -0.431139 -7.218013 27.622127 -0.756535 0.000000 -0.000000 0.000000 -3.499647 -4.331535 2.270386 1.078650 -0.354736 1.710885 0.000000 0.000000 0.000000 1.243267 -0.307840 1.586529 -1.513747 -11.422836 -3.514679 0.888214 -0.362811 0.010249 -4.028773 -13.438640 1.933876 -79.905271 -7.318983 -10.731243 -1.345412 4.254156 2.008561 1.058983 -0.781129 1.927197 8.434233 9.632105 1.766642 16.216849 21.794925 -44.785946 -5.795018 53.254672 0.633731 -0.000000 -0.000000 -0.000000 1.842449 19.476316 -17.780040 -3.549654 -18.036087 2.612463 -0.000000 -0.000000 -0.000000 -2.051320 -6.159497 -9.358996 6.809412 4.994730 10.123708 
-1.344971 -0.486800 -0.601223 -7.997095 25.939198 -2.074581 0.000000 -0.000000 0.000000 -2.375475 -4.296952 2.148788 1.153436 -0.345667 1.907074 0.000000 0.000000 0.000000 1.318457 -0.291542 2.019845 -1.155179 -12.551200 -3.981306 0.943175 -0.412925 0.168263 -4.579438 -11.705421 1.081689 -80.662464 -8.830664 -13.437576 -1.454683 9.117164 1.601470 1.067758 -0.863656 2.252273 7.223545 5.113317 0.946318 10.358214 19.753026 -53.113996 -5.912887 59.254788 0.438453 -0.000000 -0.000000 -0.000000 2.413915 21.438406 -17.507957 -2.730765 -16.762833 4.657325 -0.000000 -0.000000 -0.000000 -2.337825 -10.362705 -8.575908 8.736636 7.396835 10.891857 
-1.661420 -0.581829 -0.743134 -8.155325 23.094722 -2.224593 0.000000 -0.000000 0.000000 -0.509775 -3.890077 1.923079 1.281721 -0.318824 2.261139 0.000000 0.000000 0.000000 1.436311 -0.269831 2.632302 -1.111003 -13.340921 -3.903161 0.993993 -0.410622 0.712012 -4.553293 -9.048130 -0.952225 -81.302868 -9.857637 -13.325916 -1.453646 11.638178 1.813178 1.146521 -0.879269 2.801357 7.636801 2.971900 0.448774 6.592410 18.351415 -57.933257 -5.967433 60.313954 0.318725 -0.000000 -0.000000 -0.000000 2.702473 22.290472 -17.096629 -2.091397 -16.048281 5.931051 -0.000000 -0.000000 -0.000000 -2.376590 -12.556711 -8.030048 9.275458 8.225959 11.078894 
-1.966054 -0.652760 -0.857398 -8.178601 20.868535 -1.994706 0.000000 -0.000000 0.000000 1.168620 -3.600091 1.759153 1.438067 -0.352914 2.625931 0.000000 0.000000 0.000000 1.573121 -0.293139 3.143584 -1.312593 -13.982233 -3.402681 1.079195 -0.376508 1.350243 -5.031659 -7.795864 -1.838207 -81.241233 -10.596157 -12.046579 -1.319877 12.469496 2.261592 1.350722 -0.877366 3.225270 8.920791 2.221682 0.094375 5.699130 18.694604 -59.341126 -5.941838 59.029141 0.315269 -0.000000 -0.000000 -0.000000 2.778405 22.573716 -16.849732 -1.882761 -16.136499 6.429905 -0.000000 -0.000000 -0.000000 -2.104210 -12.882305 -7.788946 8.913665 7.783384 10.929626 
-2.257195 -0.714736 -0.953763 -8.176173 19.623020 -1.593733 0.000000 -0.000000 0.000000 2.526240 -3.329437 1.291069 1.592145 -0.336040 2.822167 0.000000 0.000000 0.000000 1.719988 -0.297237 3.442613 -1.584878 -14.421769 -2.900793 1.171711 -0.370373 1.703638 -5.632298 -6.951361 -2.182998 -80.688958 -10.771323 -10.489379 -1.247836 12.051297 2.724481 1.556370 -0.913023 3.430303 10.059085 2.131278 0.552577 7.180117 20.377555 -57.826438 -5.665068 56.171631 0.465222 -0.000000 -0.000000 -0.000000 2.748987 22.367625 -16.739583 -1.840280 -16.714614 6.128066 -0.000000 -0.000000 -0.000000 -1.723035 -12.595571 -7.532943 8.208931 6.797563 10.518486 
-2.537514 -0.776404 -1.042095 -8.231619 19.221239 -1.301453 0.000000 -0.000000 0.000000 3.695888 -2.609598 0.850631 1.720002 -0.314838 2.902474 0.000000 0.000000 0.000000 1.862462 -0.276030 3.581961 -1.886900 -14.609190 -2.465805 1.255396 -0.383373 1.843863 -6.085769 -6.392382 -2.191957 -80.265977 -10.579361 -9.676540 -1.221495 11.509867 3.115609 1.732980 -0.916135 3.481440 11.262457 2.167360 1.232792 10.384456 22.577786 -54.164691 -5.530902 52.968176 0.538312 0.000000 0.000000 -0.000000 2.727351 21.951757 -16.584668 -1.846264 -17.404681 5.401741 -0.000000 -0.000000 -0.000000 -1.254617 -11.708151 -7.415686 7.494492 5.733719 10.096972 
-2.809183 -0.839015 -1.126185 -8.325869 19.317636 -1.185313 0.000000 -0.000000 0.000000 4.452980 -2.064976 0.442294 1.842867 -0.311307 2.937825 0.000000 0.000000 0.000000 1.981815 -0.244194 3.612271 -2.076778 -14.635490 -2.162984 1.305192 -0.375186 1.897961 -6.237253 -5.859830 -2.246684 -80.258979 -10.339877 -9.860938 -1.225788 11.526037 3.384743 1.885087 -0.941782 3.507548 12.441552 2.120410 1.917593 14.313086 24.479959 -48.920049 -5.499363 50.122598 0.516562 0.000000 0.000000 -0.000000 2.742229 21.531719 -16.330440 -1.888334 -18.140799 4.601542 -0.000000 -0.000000 -0.000000 -0.877440 -11.169098 -7.335857 7.053399 5.019935 9.759212 
-3.082419 -0.903549 -1.209655 -8.418386 19.513110 -1.199999 0.000000 -0.000000 0.000000 4.918089 -1.840952 0.209104 1.913049 -0.317387 2.970679 0.000000 0.000000 0.000000 2.069048 -0.222974 3.642934 -2.323650 -14.573772 -1.935186 1.328015 -0.370978 1.927530 -6.177278 -5.693764 -2.196328 -80.629147 -10.230396 -10.512180 -1.243221 12.033672 3.463795 1.992517 -0.971660 3.518365 13.259271 1.753106 2.303658 17.801006 25.597071 -44.098743 -5.482837 48.377578 0.515050 0.000000 0.000000 -0.000000 2.807608 21.202606 -15.954648 -1.884314 -18.757337 3.843344 0.000000 -0.000000 -0.000000 -0.652017 -10.991953 -7.236651 6.904754 4.703644 9.529733 
-3.360725 -0.970460 -1.294210 -8.509959 19.673866 -1.295340 0.000000 -0.000000 0.000000 5.208935 -1.763138 0.084309 1.922078 -0.323009 3.001231 0.000000 0.000000 0.000000 2.105105 -0.204502 3.664218 -2.565021 -14.568144 -1.818579 1.336900 -0.372940 1.948959 -6.049068 -5.798236 -2.056011 -80.993467 -10.172123 -11.226889 -1.255764 12.924039 3.427709 2.032339 -0.992391 3.529339 13.780707 1.211723 2.377638 20.452761 25.841858 -40.521433 -5.499340 47.418958 0.496733 0.000000 0.000000 -0.000000 2.884515 20.954846 -15.560518 -1.830284 -19.236365 3.201801 0.000000 -0.000000 -0.000000 -0.538469 -10.911343 -7.147626 6.929376 4.596303 9.412858 
-3.645476 -1.040001 -1.381323 -8.564032 19.763766 -1.365006 0.000000 -0.000000 0.000000 5.396199 -1.772330 -0.015692 1.886068 -0.325401 3.035290 0.000000 0.000000 0.000000 2.104190 -0.187972 3.680401 -2.734881 -14.610062 -1.820411 1.333372 -0.375292 1.972450 -5.928248 -5.997085 -1.886526 -81.178760 -10.255875 -11.711082 -1.284539 13.880258 3.310542 2.019013 -1.004899 3.546281 14.196564 0.477143 2.281559 21.888950 25.751287 -38.820279 -5.605838 47.422582 0.443483 0.000000 0.000000 -0.000000 2.951790 20.779336 -15.238379 -1.754763 -19.577630 2.741956 0.000000 0.000000 -0.000000 -0.501164 -10.888040 -7.058651 7.026874 4.602422 9.318871 
